<svg width="500" height="500" version="1.1" xmlns="http://www.w3.org/2000/svg" desc="Created with imagetracer.js version 1.2.6" ><path fill="rgb(0,0,0)" stroke="rgb(0,0,0)" stroke-width="1" opacity="0" d="M 0 0 L 500 0 L 500 500 L 0 500 L 0 0 Z M 163 112 L 161 113 L 156 120 L 156 135 L 129 135 L 128 136 L 125 136 Q 126 139 123 138 L 121 142 L 121 241 L 110 248 Q 107 247 108 250 L 100 257 Q 101 259 98 258 L 87 279 L 83 297 L 84 314 L 87 325 L 98 344 Q 107 354 119 361 L 135 368 L 154 372 L 405 372 L 408 370 L 409 364 Q 407 358 398 360 L 398 198 L 395 194 L 354 194 L 350 198 L 350 360 L 350 360 L 343 360 L 343 247 L 342 245 L 338 241 L 304 241 L 300 242 L 298 246 L 298 360 L 298 360 L 292 360 L 292 293 L 291 291 L 288 288 L 272 288 L 272 264 L 288 247 Q 287 244 290 245 L 290 244 L 306 228 Q 305 225 308 226 L 308 225 L 318 215 L 320 212 L 325 208 L 325 207 L 334 198 Q 333 195 336 196 L 353 178 Q 352 175 355 176 L 355 174 L 357 174 L 357 172 L 359 172 L 359 170 L 361 170 L 361 169 L 379 150 L 380 162 L 386 165 L 391 164 L 394 161 L 394 151 L 396 142 L 396 119 L 393 115 L 386 115 L 371 121 L 367 121 Q 359 126 349 127 Q 345 129 346 137 L 351 140 Q 355 141 357 139 L 365 140 L 356 150 Q 357 152 354 151 L 354 153 L 353 153 L 319 189 Q 320 191 317 190 L 311 198 Q 312 200 309 199 L 309 201 L 307 201 L 306 204 L 305 118 L 303 115 L 299 112 L 163 112 Z " /><path fill="rgb(0,0,0)" stroke="rgb(0,0,0)" stroke-width="1" opacity="0" d="M 191.5 225 L 204.5 226 Q 213.5 230 219 237.5 L 223 247.5 L 223 257.5 Q 220.4 268.4 212.5 274 L 211 274 L 211 270 Q 208 271.3 209 267.5 L 200 255 L 198 255 L 198 253 L 196 253 Q 197.1 250.3 194.5 251 L 183.5 242 L 173 237.5 L 177 232 L 186.5 226 L 191.5 225 Z " /><path fill="rgb(90,177,101)" stroke="rgb(90,177,101)" stroke-width="1" opacity="0.9725490196078431" d="M 169 124 L 293 124 L 293 217.5 L 292 220 L 290 220 L 290 222 Q 287.3 220.9 288 223.5 L 271 239.5 L 271 142.5 L 266.5 137 L 264.5 136 L 169 136 L 169 124 Z " /><path fill="rgb(90,177,101)" stroke="rgb(90,177,101)" stroke-width="1" opacity="0.9725490196078431" d="M 348.5 128 L 347.5 130 L 348.5 128 Z " /><path fill="rgb(90,177,101)" stroke="rgb(90,177,101)" stroke-width="1" opacity="0.9725490196078431" d="M 123.5 139 L 122.5 141 L 123.5 139 Z " /><path fill="rgb(90,177,101)" stroke="rgb(90,177,101)" stroke-width="1" opacity="0.9725490196078431" d="M 394.5 142 L 395 146.5 L 394 146.5 L 394.5 142 Z " /><path fill="rgb(90,177,101)" stroke="rgb(90,177,101)" stroke-width="1" opacity="0.9725490196078431" d="M 133 147 L 261 147 L 261 360 L 184.5 360 L 184 358 Q 191.5 355.5 196.5 349 L 198.5 349 L 224.5 349 L 225.5 350 L 227.5 350 L 233 346.5 Q 234.2 336.7 241.5 333 L 249 329.5 L 249 180.5 L 245.5 177 L 242.5 177 L 235 171.5 Q 231.5 168 231 161.5 L 228.5 159 L 165.5 159 L 163 160 L 161 167.5 L 154.5 175 L 147.5 177 L 144 180.5 L 144 234.5 L 140.5 235 L 133 237 L 133 147 Z " /><path fill="rgb(90,177,101)" stroke="rgb(90,177,101)" stroke-width="1" opacity="0.9725490196078431" d="M 350.5 156 L 347.5 160 L 350.5 156 Z " /><path fill="rgb(90,177,101)" stroke="rgb(90,177,101)" stroke-width="1" opacity="0.9725490196078431" d="M 359.5 169 L 355.5 174 L 359.5 169 Z " /><path fill="rgb(90,177,101)" stroke="rgb(90,177,101)" stroke-width="1" opacity="0.9725490196078431" d="M 171 170 L 221.5 170 L 223 171.5 Q 225.6 178.9 231.5 183 L 238 187.5 L 238 323.5 L 236.5 324 L 229 329 L 224 339 L 206.5 339 L 206 337.5 L 212 328.5 L 212 325.5 L 214 323.5 L 216 316.5 L 217 293.5 Q 214.3 291.8 216 285.5 L 222 282 L 222 280 L 224 280 L 224 278 Q 226.7 279.1 226 276.5 Q 235.1 267.6 235 249.5 Q 231.4 229.6 217.5 220 L 203.5 214 L 188.5 214 Q 173.1 217.6 165 228.5 L 160.5 235 Q 155.1 235.6 155 234.5 L 155 186 Q 163.9 183.3 169 175.5 L 171 170 Z " /><path fill="rgb(90,177,101)" stroke="rgb(90,177,101)" stroke-width="1" opacity="0.9725490196078431" d="M 337.5 170 L 334.5 174 L 337.5 170 Z " /><path fill="rgb(90,177,101)" stroke="rgb(90,177,101)" stroke-width="1" opacity="0.9725490196078431" d="M 324.5 184 L 322.5 187 L 324.5 184 Z " /><path fill="rgb(90,177,101)" stroke="rgb(90,177,101)" stroke-width="1" opacity="0.9725490196078431" d="M 320.5 188 L 319.5 190 L 320.5 188 Z " /><path fill="rgb(90,177,101)" stroke="rgb(90,177,101)" stroke-width="1" opacity="0.9725490196078431" d="M 310.5 199 L 308.5 202 L 310.5 199 Z " /><path fill="rgb(90,177,101)" stroke="rgb(90,177,101)" stroke-width="1" opacity="0.9725490196078431" d="M 350.5 199 L 351 359.5 L 350 359.5 L 350.5 199 Z " /><path fill="rgb(90,177,101)" stroke="rgb(90,177,101)" stroke-width="1" opacity="0.9725490196078431" d="M 362 204 L 385.5 204 L 387 205.5 L 387 359.5 L 386.5 360 L 362 360 L 362 204 Z " /><path fill="rgb(90,177,101)" stroke="rgb(90,177,101)" stroke-width="1" opacity="0.9725490196078431" d="M 320.5 210 L 318.5 213 L 320.5 210 Z " /><path fill="rgb(90,177,101)" stroke="rgb(90,177,101)" stroke-width="1" opacity="0.9725490196078431" d="M 191.5 224 L 199 224.5 L 191.5 225 L 191.5 224 Z " /><path fill="rgb(90,177,101)" stroke="rgb(90,177,101)" stroke-width="1" opacity="0.9725490196078431" d="M 307.5 224 L 304.5 228 L 307.5 224 Z " /><path fill="rgb(90,177,101)" stroke="rgb(90,177,101)" stroke-width="1" opacity="0.9725490196078431" d="M 178.5 230 L 177.5 232 L 178.5 230 Z " /><path fill="rgb(90,177,101)" stroke="rgb(90,177,101)" stroke-width="1" opacity="0.9725490196078431" d="M 174.5 234 L 173.5 236 L 174.5 234 Z " /><path fill="rgb(90,177,101)" stroke="rgb(90,177,101)" stroke-width="1" opacity="0.9725490196078431" d="M 218.5 236 L 219.5 238 L 218.5 236 Z " /><path fill="rgb(90,177,101)" stroke="rgb(90,177,101)" stroke-width="1" opacity="0.9725490196078431" d="M 304.5 241 L 336 241.5 L 304.5 242 L 304.5 241 Z " /><path fill="rgb(90,177,101)" stroke="rgb(90,177,101)" stroke-width="1" opacity="0.9725490196078431" d="M 144.5 245 L 156 245.5 L 144.5 246 L 144.5 245 Z " /><path fill="rgb(90,177,101)" stroke="rgb(90,177,101)" stroke-width="1" opacity="0.9725490196078431" d="M 286.5 246 L 284.5 249 L 286.5 246 Z " /><path fill="rgb(90,177,101)" stroke="rgb(90,177,101)" stroke-width="1" opacity="0.9725490196078431" d="M 134.5 247 L 137 247.5 L 134.5 248 L 134.5 247 Z " /><path fill="rgb(90,177,101)" stroke="rgb(90,177,101)" stroke-width="1" opacity="0.9725490196078431" d="M 342.5 247 L 343 359.5 L 342 359.5 L 342.5 247 Z " /><path fill="rgb(90,177,101)" stroke="rgb(90,177,101)" stroke-width="1" opacity="0.9725490196078431" d="M 223.5 248 L 224 257.5 L 223 257.5 L 223.5 248 Z " /><path fill="rgb(90,177,101)" stroke="rgb(90,177,101)" stroke-width="1" opacity="0.9725490196078431" d="M 193.5 250 L 199.5 257 L 193.5 250 Z " /><path fill="rgb(90,177,101)" stroke="rgb(90,177,101)" stroke-width="1" opacity="0.9725490196078431" d="M 106.5 251 L 105.5 253 L 106.5 251 Z " /><path fill="rgb(90,177,101)" stroke="rgb(90,177,101)" stroke-width="1" opacity="0.9725490196078431" d="M 310 253 L 330.5 253 L 331 253.5 L 331 360 L 309 359.5 L 310 358.5 L 310 253 Z " /><path fill="rgb(90,177,101)" stroke="rgb(90,177,101)" stroke-width="1" opacity="0.9725490196078431" d="M 102.5 255 L 100.5 258 L 102.5 255 Z " /><path fill="rgb(90,177,101)" stroke="rgb(90,177,101)" stroke-width="1" opacity="0.9725490196078431" d="M 118.5 255 L 117.5 257 L 118.5 255 Z " /><path fill="rgb(90,177,101)" stroke="rgb(90,177,101)" stroke-width="1" opacity="0.9725490196078431" d="M 186.5 258 L 191.5 264 L 186.5 258 Z " /><path fill="rgb(90,177,101)" stroke="rgb(90,177,101)" stroke-width="1" opacity="0.9725490196078431" d="M 112.5 260 L 110.5 263 L 112.5 260 Z " /><path fill="rgb(90,177,101)" stroke="rgb(90,177,101)" stroke-width="1" opacity="0.9725490196078431" d="M 272.5 261 L 271.5 263 L 272.5 261 Z " /><path fill="rgb(90,177,101)" stroke="rgb(90,177,101)" stroke-width="1" opacity="0.9725490196078431" d="M 107.5 266 L 106.5 268 L 107.5 266 Z " /><path fill="rgb(90,177,101)" stroke="rgb(90,177,101)" stroke-width="1" opacity="0.9725490196078431" d="M 194.5 267 L 195.5 269 L 194.5 267 Z " /><path fill="rgb(90,177,101)" stroke="rgb(90,177,101)" stroke-width="1" opacity="0.9725490196078431" d="M 135.5 272 L 133.5 275 L 135.5 272 Z " /><path fill="rgb(90,177,101)" stroke="rgb(90,177,101)" stroke-width="1" opacity="0.9725490196078431" d="M 166.5 272 L 167.5 274 L 166.5 272 Z " /><path fill="rgb(90,177,101)" stroke="rgb(90,177,101)" stroke-width="1" opacity="0.9725490196078431" d="M 198.5 273 L 199.5 275 L 198.5 273 Z " /><path fill="rgb(90,177,101)" stroke="rgb(90,177,101)" stroke-width="1" opacity="0.9725490196078431" d="M 200.5 277 L 201.5 279 L 200.5 277 Z " /><path fill="rgb(90,177,101)" stroke="rgb(90,177,101)" stroke-width="1" opacity="0.9725490196078431" d="M 140.5 286 L 141 288.5 L 140 288.5 L 140.5 286 Z " /><path fill="rgb(90,177,101)" stroke="rgb(90,177,101)" stroke-width="1" opacity="0.9725490196078431" d="M 272.5 288 L 287 288.5 L 272.5 289 L 272.5 288 Z " /><path fill="rgb(90,177,101)" stroke="rgb(90,177,101)" stroke-width="1" opacity="0.9725490196078431" d="M 143.5 292 L 144.5 294 L 143.5 292 Z " /><path fill="rgb(90,177,101)" stroke="rgb(90,177,101)" stroke-width="1" opacity="0.9725490196078431" d="M 291.5 294 L 292 359.5 L 291 359.5 L 291.5 294 Z " /><path fill="rgb(90,177,101)" stroke="rgb(90,177,101)" stroke-width="1" opacity="0.9725490196078431" d="M 271 299 L 279.5 299 L 280 299.5 L 280 360 L 271.5 360 L 271 359.5 L 271 299 Z " /><path fill="rgb(90,177,101)" stroke="rgb(90,177,101)" stroke-width="1" opacity="0.9725490196078431" d="M 167.5 300 L 170.5 304 L 167.5 300 Z " /><path fill="rgb(90,177,101)" stroke="rgb(90,177,101)" stroke-width="1" opacity="0.9725490196078431" d="M 135.5 302 L 138 303.5 L 136.5 304 L 135.5 302 Z " /><path fill="rgb(90,177,101)" stroke="rgb(90,177,101)" stroke-width="1" opacity="0.9725490196078431" d="M 174.5 312 L 175 317.5 L 174 317.5 L 174.5 312 Z " /><path fill="rgb(90,177,101)" stroke="rgb(90,177,101)" stroke-width="1" opacity="0.9725490196078431" d="M 130.5 316 L 128.5 319 L 130.5 316 Z " /><path fill="rgb(90,177,101)" stroke="rgb(90,177,101)" stroke-width="1" opacity="0.9725490196078431" d="M 130.5 327 L 132.5 330 L 130.5 327 Z " /><path fill="rgb(90,177,101)" stroke="rgb(90,177,101)" stroke-width="1" opacity="0.9725490196078431" d="M 104.5 332 L 105.5 334 L 104.5 332 Z " /><path fill="rgb(90,177,101)" stroke="rgb(90,177,101)" stroke-width="1" opacity="0.9725490196078431" d="M 157.5 334 L 157 335.5 L 156.5 338 L 156 335.5 L 157.5 334 Z " /><path fill="rgb(90,177,101)" stroke="rgb(90,177,101)" stroke-width="1" opacity="0.9725490196078431" d="M 107.5 336 L 109.5 339 L 107.5 336 Z " /><path fill="rgb(90,177,101)" stroke="rgb(90,177,101)" stroke-width="1" opacity="0.9725490196078431" d="M 193.5 336 L 192.5 338 L 193.5 336 Z " /><path fill="rgb(90,177,101)" stroke="rgb(90,177,101)" stroke-width="1" opacity="0.9725490196078431" d="M 95.5 338 L 96.5 340 L 95.5 338 Z " /><path fill="rgb(90,177,101)" stroke="rgb(90,177,101)" stroke-width="1" opacity="0.9725490196078431" d="M 146.5 341 L 147.5 343 L 146.5 341 Z " /><path fill="rgb(90,177,101)" stroke="rgb(90,177,101)" stroke-width="1" opacity="0.9725490196078431" d="M 98.5 342 L 99.5 344 L 98.5 342 Z " /><path fill="rgb(90,177,101)" stroke="rgb(90,177,101)" stroke-width="1" opacity="0.9725490196078431" d="M 113.5 342 L 115.5 345 L 113.5 342 Z " /><path fill="rgb(90,177,101)" stroke="rgb(90,177,101)" stroke-width="1" opacity="0.9725490196078431" d="M 113.5 356 L 114.5 358 L 113.5 356 Z " /><path fill="rgb(90,177,101)" stroke="rgb(90,177,101)" stroke-width="1" opacity="0.9725490196078431" d="M 143.5 356 L 157 356.5 L 143.5 357 L 143.5 356 Z " /><path fill="rgb(1,72,52)" stroke="rgb(1,72,52)" stroke-width="1" opacity="0.996078431372549" d="M 163.5 113 L 166.5 114 L 169.5 113 Q 175 111.5 176.5 114 L 246.5 114 L 248.5 114 L 287.5 114 Q 289.3 111.2 295.5 113 L 297.5 113 L 300 114.5 Q 299.3 116.8 301.5 116 L 304 119.5 L 304 206 L 307 205.5 Q 304.8 204.3 307.5 203 L 310 201.5 L 310.5 200 L 312 200.5 L 312 198 Q 314.7 199.1 314 196.5 L 317 195 L 318.5 191 L 320 191.5 L 320 189 Q 322.7 190.1 322 187.5 L 324 187.5 L 324 185 Q 326.7 186.1 326 183.5 L 327 181 Q 329.7 182.1 329 179.5 L 331 179.5 L 334 174 Q 336.7 175.1 336 172.5 L 338 172.5 L 338 170 L 340 170 L 340 168 L 342 168 L 342 166 L 344 166 Q 342.9 163.3 345.5 164 L 345.5 162 Q 346.8 164.3 348 161.5 L 347 160.5 L 353 154.5 Q 352.3 152.3 354.5 153 L 358 150.5 L 357.5 149 L 360 147.5 L 366.5 140 L 368 139.5 Q 366.3 135.3 364.5 138 Q 357.7 138.9 355 137 Q 356.4 140.7 350.5 139 L 350.5 137 L 347 135.5 L 349 131.5 Q 346.8 130.3 349.5 129 L 352.5 127 L 354.5 127 Q 356.8 124.3 362.5 125 L 367.5 122 L 369.5 122 L 372.5 121 Q 374 123.5 375.5 120 L 383.5 117 L 385.5 118 Q 386.3 115.3 390.5 116 L 392.5 119 L 395 118 L 394 120.5 L 395 125.5 L 394 128.5 L 395 129.5 L 395 140.5 L 393 147.5 L 394 149.5 L 392 152.5 L 392 154.5 L 393 160 L 389 161 L 387.5 164 Q 384.2 165.1 385 162.5 L 383 162.5 Q 385.3 161.3 382.5 160 L 381 160.5 Q 383.5 159 380 157.5 L 381 148 L 377 149 L 377 151 Q 374.3 149.9 375 152.5 Q 372.5 157.3 370 155.5 Q 370.8 157.8 368.5 157 L 367.5 160 Q 365.3 159.3 366 161.5 L 363 163.5 L 363.5 165 L 361 165.5 L 361.5 167 L 356 170 L 355.5 173 L 354 172.5 L 354 175 Q 351.3 173.9 352 176.5 L 348 179 L 343.5 185 Q 340.9 184.2 342 187.5 Q 340 191.2 338 189.5 L 338 192 L 336 192 Q 337.1 194.7 334.5 194 Q 330.8 196 332.5 198 Q 331.3 195.8 330 198.5 L 330.5 200 L 328 200.5 L 328.5 202 Q 327.3 199.8 326 202.5 L 326 205 Q 323.3 203.9 324 206.5 L 320 208 Q 321.5 211.8 318.5 211 L 317 214 Q 314.3 212.9 315 215.5 L 307 225 Q 304 224 305 227 L 302.5 227 L 302.5 229 Q 299.9 228.3 301 231 L 299 231 L 299 233 L 296.5 233 L 296.5 234 L 298 234.5 L 296 235 L 295.5 237 L 294.5 235 L 293 237.5 L 293.5 239 L 292 238.5 Q 293.1 241.8 290.5 241 L 289 244 Q 286.3 242.9 287 245.5 L 283 248 L 283 250 L 281 250 Q 282.1 252.7 279.5 252 L 274.5 258 L 273 258.5 L 273.5 260 L 271.5 259 L 272 260.5 Q 272.8 262.8 270.5 262 L 270 264.5 L 270 289 L 287.5 289 L 289 292 L 291 292.5 L 291 360.5 Q 292.3 363.3 293.5 361 Q 298.9 361.6 299 360.5 L 299 246.5 L 300.5 246 L 301.5 243 L 303.5 244 L 303.5 242 L 337 242.5 L 336.5 244 L 339.5 245 L 341 244.5 L 342 246.5 L 341 251.5 L 342 252.5 L 342 357.5 Q 339.3 359.3 343.5 361 Q 350.2 362.8 352 359.5 L 351 357.5 L 351 262.5 L 352 260.5 L 351 257.5 L 352 256.5 L 352 248.5 Q 349.2 246.8 351 240.5 Q 353.8 238.7 352 232.5 L 351 231.5 L 351 212.5 L 352 209.5 L 351 206.5 L 352 202.5 L 351 199.5 L 354.5 195 L 358.5 194 L 390.5 194 L 394 195.5 L 393.5 197 L 397 198 L 396 203.5 L 397 208.5 L 396 211.5 L 397 219.5 L 396 220.5 L 396 247.5 L 397 248.5 L 397 271.5 L 396 272.5 L 396 308.5 L 397 311.5 Q 394.3 313.3 396 319.5 L 397 320.5 L 397 335.5 L 396 336.5 L 396 359.5 Q 397.7 363.7 399.5 361 L 403.5 362 L 405.5 362 L 407 362.5 Q 404.5 364 408 365.5 Q 408.8 367.8 406.5 367 L 406.5 369 L 404.5 368 L 403.5 371 L 154.5 371 L 152.5 369 L 150.5 369 L 147.5 370 L 146.5 368 L 142.5 369 L 127.5 363 L 126.5 364 L 120.5 360 Q 116.8 361 118 358 L 115 358 L 115 355.5 L 113.5 356 Q 111.3 356.8 112 354.5 L 106 349.5 Q 106.8 347.3 104.5 348 L 99 342.5 L 99.5 341 L 97 339.5 L 94 334.5 Q 96.3 333.2 93.5 332 L 91 330.5 L 92 328 L 90 327.5 L 91 325.5 L 88 321.5 Q 90.5 320 87 318.5 L 86 313.5 L 86 311.5 L 84 299.5 L 87 289.5 L 86 285.5 L 89 281.5 L 88 279.5 L 90 277.5 L 92 270 L 94 269.5 Q 91.8 268.3 94.5 267 L 96 267 Q 94.5 263.3 97.5 264 L 97 262.5 L 104 255.5 L 105.5 253 L 110 250.5 L 109.5 249 L 113 248 Q 111.8 245 115.5 246 L 120 243.5 Q 119.3 241.3 121.5 242 L 123 240.5 L 123 142.5 L 124 141.5 L 123.5 140 Q 125.3 142.8 127 138.5 L 128.5 136 L 157.5 136 L 158 134.5 L 158 132.5 L 158 120.5 L 157 119.5 L 159 118.5 L 158.5 117 L 160 117.5 Q 158.9 114.2 161.5 115 L 163.5 113 Z M 170 122 L 168 125 L 168 136 L 265 136 L 268 138 L 271 144 L 272 241 L 282 230 Q 284 231 283 228 L 285 228 L 285 226 L 287 226 L 293 219 L 293 123 L 292 124 L 170 124 L 170 122 Z M 133 146 L 133 151 L 133 153 L 133 233 L 132 234 L 133 236 L 133 237 L 137 236 Q 141 235 143 237 L 144 236 L 144 182 L 145 180 Q 148 176 154 176 L 157 173 L 158 174 L 162 167 L 162 163 L 165 160 L 229 160 L 231 161 L 230 164 L 233 170 L 242 177 L 247 178 L 249 182 L 247 183 L 249 183 L 249 329 L 248 331 L 240 334 L 232 344 L 233 347 L 230 349 L 197 349 L 196 350 Q 193 349 194 352 L 186 357 L 184 357 L 181 360 L 183 362 L 184 361 L 261 361 L 262 360 L 262 261 L 261 260 L 262 256 L 262 148 L 261 146 L 133 146 Z M 172 170 L 170 171 L 170 173 L 168 177 Q 164 182 157 185 L 155 187 L 155 235 L 161 236 L 167 228 Q 166 225 169 226 L 169 224 L 175 220 Q 178 221 177 218 L 190 214 L 203 214 L 214 218 L 219 222 L 222 224 L 231 237 L 235 253 L 233 260 L 233 265 L 227 276 L 222 279 L 221 282 Q 218 281 219 284 L 215 285 L 217 295 L 217 309 L 215 319 L 206 339 Q 207 341 209 339 L 210 340 L 223 340 L 226 334 L 234 326 L 237 325 L 238 324 L 238 186 L 231 182 L 224 175 L 224 173 L 222 170 L 172 170 Z M 361 204 L 361 360 L 363 360 L 365 360 L 369 361 L 384 361 L 387 360 L 387 205 L 387 204 L 361 204 Z M 187 224 L 184 227 Q 182 225 181 228 Q 182 230 180 229 Q 178 232 177 230 Q 174 231 176 233 L 175 232 Q 172 233 174 235 L 172 235 L 173 237 L 172 239 Q 178 240 183 244 Q 186 243 185 246 Q 186 248 188 246 L 187 248 L 193 251 Q 192 253 195 252 L 198 256 Q 200 255 199 258 L 202 259 L 201 261 L 203 261 L 209 271 Q 207 272 210 273 Q 212 272 211 275 L 215 275 L 215 273 Q 217 274 216 271 L 218 271 L 220 267 L 223 264 L 222 263 L 224 258 L 224 256 Q 223 250 225 249 L 222 243 L 223 242 L 220 239 L 221 237 L 220 237 L 215 231 L 213 231 Q 214 228 211 229 L 210 226 L 208 227 L 207 225 L 205 224 L 203 225 L 200 224 L 192 224 L 191 225 L 187 224 Z M 152 243 L 140 246 L 137 245 L 135 246 Q 133 249 132 247 L 130 248 Q 127 247 128 250 L 126 249 L 109 263 Q 110 265 107 264 L 107 266 L 105 266 L 99 280 Q 95 281 98 283 L 96 283 L 95 290 L 95 294 L 94 294 L 95 297 L 94 296 L 93 300 L 93 302 L 94 311 L 96 313 L 95 316 Q 98 317 96 319 L 98 325 L 100 324 L 99 326 L 100 328 Q 103 329 101 331 L 103 331 L 103 334 L 106 338 L 115 345 L 118 348 L 119 347 L 118 349 L 120 349 L 122 349 L 121 351 L 128 354 L 136 355 L 141 358 Q 146 360 148 357 Q 152 356 154 358 L 166 357 L 165 356 L 167 356 L 170 355 Q 171 351 173 354 Q 175 355 174 353 L 177 352 Q 179 353 178 351 L 180 351 L 180 350 Q 182 345 184 348 L 191 343 L 194 337 L 196 338 L 196 336 L 204 323 L 203 321 L 206 317 L 205 315 L 208 305 L 208 299 L 206 292 L 207 289 L 203 283 L 205 282 L 204 281 L 202 278 L 202 276 L 201 275 L 201 274 L 200 272 L 199 272 L 199 271 L 197 268 L 196 268 L 196 267 L 193 263 L 191 261 L 189 259 L 188 259 L 188 258 L 185 255 Q 182 256 183 254 L 180 253 Q 181 250 179 251 L 177 252 Q 178 249 176 250 L 174 250 L 172 247 L 165 245 L 162 246 L 152 243 Z M 311 252 L 309 254 L 309 360 L 312 361 L 314 360 L 329 360 L 331 360 L 332 360 L 332 256 L 332 254 L 331 252 L 311 252 Z M 271 299 L 271 360 L 272 360 L 281 360 L 281 300 L 281 299 L 271 299 Z " /><path fill="rgb(1,72,52)" stroke="rgb(1,72,52)" stroke-width="1" opacity="0.996078431372549" d="M 151.5 260 L 156 265.5 L 156 268.5 L 155 270.5 L 157.5 271 L 161.5 272 L 163 271.5 L 164.5 274 L 168 275.5 Q 167.3 277.8 169.5 277 L 169.5 279 L 172 279.5 L 170 285 Q 167.3 283.9 168 286.5 L 167 286.5 L 166.5 285 L 164.5 285 L 160 282.5 Q 160.8 279.9 157.5 281 L 153.5 279 Q 152.3 281.2 147.5 280 L 144.5 279 L 142 280 L 140 283.5 L 140.5 285 L 139 284.5 L 140 287.5 L 139 290.5 L 142.5 295 L 144.5 294 L 155.5 298 L 157.5 297 L 161.5 300 L 167 301 L 173 309.5 L 174 314.5 L 174 316.5 L 173 321 L 171 321.5 L 172 322.5 L 169 325.5 L 166.5 329 L 164 330.5 L 163.5 332 L 161.5 331 L 156 334 Q 157 339.6 152.5 341 L 149.5 342 L 147 340.5 L 147 338.5 L 147 334 L 142.5 334 L 142 332 L 139.5 332 L 137 331.5 L 135.5 329 L 132 328 L 130.5 324 L 129 324.5 L 130 322.5 L 129 320.5 L 129.5 318 L 134.5 316 L 141 321.5 Q 140.2 324.1 143.5 323 L 146.5 324 L 154.5 325 L 159 323 L 163 316.5 L 163 312.5 L 160 309.5 L 159.5 308 L 157.5 308 Q 154.9 308.7 156 306 L 152.5 306 L 151 306.5 L 150.5 305 L 147.5 306 L 141.5 303 L 140.5 304 Q 138.8 300.9 137 302.5 Q 137.8 300.3 135.5 301 Q 131.4 298.6 130.5 293 L 129 293.5 L 130 291.5 L 129.5 290 L 131 289.5 L 130 287.5 L 131 285.5 L 129 282.5 L 133.5 276 L 140 272.5 L 139.5 271 L 141.5 272 L 145.5 269 L 146.5 271 L 147 268.5 L 147 264.5 L 149.5 261 L 151.5 260 Z " /><path fill="rgb(251,202,37)" stroke="rgb(251,202,37)" stroke-width="1" opacity="1" d="M 141.5 246 L 159.5 246 L 175.5 251 Q 186.7 256.8 194 266.5 Q 200.7 274.3 204 285.5 Q 203.3 291.2 206 293.5 L 206 309.5 Q 201.2 331.7 186.5 344 L 173.5 352 L 161.5 356 L 138.5 356 L 123.5 350 L 110 339.5 L 99 322.5 L 96 312.5 L 95 296.5 L 97 286.5 L 103 272.5 L 116.5 257 Q 126.3 248.8 141.5 246 Z M 148 260 Q 144 263 145 269 L 136 272 L 128 283 Q 126 293 130 298 L 137 304 L 156 308 L 160 310 L 161 313 L 160 320 L 155 323 Q 146 324 142 321 L 140 318 L 135 315 Q 130 315 128 319 Q 127 325 130 328 Q 134 334 144 334 L 145 336 L 146 342 Q 148 345 154 343 Q 157 341 157 336 L 166 332 Q 173 327 175 318 L 175 313 L 171 304 L 164 298 L 146 294 L 142 292 L 141 290 L 142 284 L 148 280 L 157 281 L 167 288 L 173 284 L 171 277 Q 167 270 157 269 L 156 263 Q 155 259 148 260 Z " /><path fill="rgb(212,224,199)" stroke="rgb(212,224,199)" stroke-width="1" opacity="0.23529411764705882" d="M 162.5 112 L 299 112.5 L 162.5 113 L 158.5 116 L 160.5 113 L 162.5 112 Z " /><path fill="rgb(212,224,199)" stroke="rgb(212,224,199)" stroke-width="1" opacity="0.23529411764705882" d="M 300.5 113 L 303 114.5 L 305 117.5 L 305.5 204 L 307.5 201 L 308 202.5 L 304 205.5 L 304 117.5 L 302 114 L 300.5 113 Z " /><path fill="rgb(212,224,199)" stroke="rgb(212,224,199)" stroke-width="1" opacity="0.23529411764705882" d="M 385.5 115 L 388 115.5 L 385.5 116 L 385.5 115 Z " /><path fill="rgb(212,224,199)" stroke="rgb(212,224,199)" stroke-width="1" opacity="0.23529411764705882" d="M 390.5 115 Q 395.5 114.5 396 118.5 L 392.5 116 Q 389.5 116.5 390.5 115 Z " /><path fill="rgb(212,224,199)" stroke="rgb(212,224,199)" stroke-width="1" opacity="0.23529411764705882" d="M 379.5 117 L 382 117.5 L 379.5 118 L 379.5 117 Z " /><path fill="rgb(212,224,199)" stroke="rgb(212,224,199)" stroke-width="1" opacity="0.23529411764705882" d="M 156.5 119 L 157 134.5 L 155.5 136 L 128.5 136 L 128.5 135 L 156 135 L 156.5 119 Z " /><path fill="rgb(212,224,199)" stroke="rgb(212,224,199)" stroke-width="1" opacity="0.23529411764705882" d="M 373.5 119 L 376 119.5 L 373.5 120 L 373.5 119 Z " /><path fill="rgb(212,224,199)" stroke="rgb(212,224,199)" stroke-width="1" opacity="0.23529411764705882" d="M 366.5 121 L 370 121.5 L 366.5 122 L 366.5 121 Z " /><path fill="rgb(212,224,199)" stroke="rgb(212,224,199)" stroke-width="1" opacity="0.23529411764705882" d="M 360.5 123 L 363 123.5 L 360.5 124 L 360.5 123 Z " /><path fill="rgb(212,224,199)" stroke="rgb(212,224,199)" stroke-width="1" opacity="0.23529411764705882" d="M 350.5 126 L 352 126.5 L 347.5 129 L 348.5 127 L 350.5 126 Z " /><path fill="rgb(212,224,199)" stroke="rgb(212,224,199)" stroke-width="1" opacity="0.23529411764705882" d="M 395.5 134 L 396 141.5 L 395 141.5 L 395.5 134 Z " /><path fill="rgb(212,224,199)" stroke="rgb(212,224,199)" stroke-width="1" opacity="0.23529411764705882" d="M 346.5 136 L 348.5 139 L 346.5 136 Z " /><path fill="rgb(212,224,199)" stroke="rgb(212,224,199)" stroke-width="1" opacity="0.23529411764705882" d="M 360.5 138 L 367 138.5 L 362 142.5 L 364.5 139 Q 359.5 140 360.5 138 Z " /><path fill="rgb(212,224,199)" stroke="rgb(212,224,199)" stroke-width="1" opacity="0.23529411764705882" d="M 350.5 139 L 356 139.5 L 350.5 140 L 350.5 139 Z " /><path fill="rgb(212,224,199)" stroke="rgb(212,224,199)" stroke-width="1" opacity="0.23529411764705882" d="M 121.5 141 L 122 240.5 L 108.5 249 L 108.5 248 L 121 241 L 121.5 141 Z " /><path fill="rgb(212,224,199)" stroke="rgb(212,224,199)" stroke-width="1" opacity="0.23529411764705882" d="M 361.5 144 L 356.5 150 L 361.5 144 Z " /><path fill="rgb(212,224,199)" stroke="rgb(212,224,199)" stroke-width="1" opacity="0.23529411764705882" d="M 394.5 147 L 395 149.5 L 394 149.5 L 394.5 147 Z " /><path fill="rgb(212,224,199)" stroke="rgb(212,224,199)" stroke-width="1" opacity="0.23529411764705882" d="M 378.5 149 Q 381.9 148.1 380 153.5 L 379 153.5 L 378.5 149 Z " /><path fill="rgb(212,224,199)" stroke="rgb(212,224,199)" stroke-width="1" opacity="0.23529411764705882" d="M 352.5 153 L 347.5 159 L 352.5 153 Z " /><path fill="rgb(212,224,199)" stroke="rgb(212,224,199)" stroke-width="1" opacity="0.23529411764705882" d="M 374.5 154 L 361 168.5 L 360.5 170 L 360 168.5 L 374.5 154 Z " /><path fill="rgb(212,224,199)" stroke="rgb(212,224,199)" stroke-width="1" opacity="0.23529411764705882" d="M 393.5 159 L 394 160.5 L 389.5 164 L 389.5 163 L 393 160.5 L 393.5 159 Z " /><path fill="rgb(212,224,199)" stroke="rgb(212,224,199)" stroke-width="1" opacity="0.23529411764705882" d="M 346.5 160 L 335.5 172 L 346.5 160 Z " /><path fill="rgb(212,224,199)" stroke="rgb(212,224,199)" stroke-width="1" opacity="0.23529411764705882" d="M 380.5 161 L 384 163.5 L 382.5 164 L 380.5 161 Z " /><path fill="rgb(212,224,199)" stroke="rgb(212,224,199)" stroke-width="1" opacity="0.23529411764705882" d="M 385.5 164 L 388 164.5 L 385.5 165 L 385.5 164 Z " /><path fill="rgb(212,224,199)" stroke="rgb(212,224,199)" stroke-width="1" opacity="0.23529411764705882" d="M 333.5 174 L 319.5 189 L 333.5 174 Z " /><path fill="rgb(212,224,199)" stroke="rgb(212,224,199)" stroke-width="1" opacity="0.23529411764705882" d="M 352.5 177 L 343 187.5 L 335.5 196 L 342 188.5 L 352.5 177 Z " /><path fill="rgb(212,224,199)" stroke="rgb(212,224,199)" stroke-width="1" opacity="0.23529411764705882" d="M 317 190 L 319 190.5 L 311 197.5 L 317 190 Z " /><path fill="rgb(212,224,199)" stroke="rgb(212,224,199)" stroke-width="1" opacity="0.23529411764705882" d="M 353.5 194 L 351 197.5 L 350.5 199 L 350 197.5 L 353.5 194 Z " /><path fill="rgb(212,224,199)" stroke="rgb(212,224,199)" stroke-width="1" opacity="0.23529411764705882" d="M 394.5 194 L 397.5 198 L 394.5 194 Z " /><path fill="rgb(212,224,199)" stroke="rgb(212,224,199)" stroke-width="1" opacity="0.23529411764705882" d="M 333.5 197 L 325.5 206 L 333.5 197 Z " /><path fill="rgb(212,224,199)" stroke="rgb(212,224,199)" stroke-width="1" opacity="0.23529411764705882" d="M 317.5 214 L 308.5 224 L 317.5 214 Z " /><path fill="rgb(212,224,199)" stroke="rgb(212,224,199)" stroke-width="1" opacity="0.23529411764705882" d="M 188.5 225 L 191 225.5 L 188.5 226 L 188.5 225 Z " /><path fill="rgb(212,224,199)" stroke="rgb(212,224,199)" stroke-width="1" opacity="0.23529411764705882" d="M 185.5 226 L 184.5 228 L 185.5 226 Z " /><path fill="rgb(212,224,199)" stroke="rgb(212,224,199)" stroke-width="1" opacity="0.23529411764705882" d="M 205.5 226 L 208 227.5 L 206.5 228 L 205.5 226 Z " /><path fill="rgb(212,224,199)" stroke="rgb(212,224,199)" stroke-width="1" opacity="0.23529411764705882" d="M 305.5 227 L 290 243.5 L 288 246.5 L 273 260.5 L 305.5 227 Z " /><path fill="rgb(212,224,199)" stroke="rgb(212,224,199)" stroke-width="1" opacity="0.23529411764705882" d="M 181.5 228 L 178.5 232 L 181.5 228 Z " /><path fill="rgb(212,224,199)" stroke="rgb(212,224,199)" stroke-width="1" opacity="0.23529411764705882" d="M 209.5 228 L 210.5 230 L 209.5 228 Z " /><path fill="rgb(212,224,199)" stroke="rgb(212,224,199)" stroke-width="1" opacity="0.23529411764705882" d="M 212.5 230 L 217.5 236 L 212.5 230 Z " /><path fill="rgb(212,224,199)" stroke="rgb(212,224,199)" stroke-width="1" opacity="0.23529411764705882" d="M 176.5 232 L 177 233.5 L 173.5 238 L 181 241.5 L 179.5 241 L 172 237.5 L 176.5 232 Z " /><path fill="rgb(212,224,199)" stroke="rgb(212,224,199)" stroke-width="1" opacity="0.23529411764705882" d="M 182.5 242 L 193 249.5 L 189.5 247 L 182.5 243 L 182.5 242 Z " /><path fill="rgb(212,224,199)" stroke="rgb(212,224,199)" stroke-width="1" opacity="0.23529411764705882" d="M 339.5 242 L 341.5 245 L 339.5 242 Z " /><path fill="rgb(212,224,199)" stroke="rgb(212,224,199)" stroke-width="1" opacity="0.23529411764705882" d="M 299.5 244 L 299 245.5 L 298.5 360 L 298 245.5 L 299.5 244 Z " /><path fill="rgb(212,224,199)" stroke="rgb(212,224,199)" stroke-width="1" opacity="0.23529411764705882" d="M 106.5 250 L 108 250.5 L 100.5 257 L 106.5 250 Z " /><path fill="rgb(212,224,199)" stroke="rgb(212,224,199)" stroke-width="1" opacity="0.23529411764705882" d="M 200.5 257 L 209 268.5 L 208 268.5 L 200.5 257 Z " /><path fill="rgb(212,224,199)" stroke="rgb(212,224,199)" stroke-width="1" opacity="0.23529411764705882" d="M 98 258 L 100 258.5 L 97 260.5 L 98 258 Z " /><path fill="rgb(212,224,199)" stroke="rgb(212,224,199)" stroke-width="1" opacity="0.23529411764705882" d="M 96.5 262 L 94.5 265 L 96.5 262 Z " /><path fill="rgb(212,224,199)" stroke="rgb(212,224,199)" stroke-width="1" opacity="0.23529411764705882" d="M 272.5 262 L 272 263.5 L 271.5 288 L 271 263.5 L 272.5 262 Z " /><path fill="rgb(212,224,199)" stroke="rgb(212,224,199)" stroke-width="1" opacity="0.23529411764705882" d="M 219.5 266 L 218 268.5 L 213.5 274 L 217 269.5 L 219.5 266 Z " /><path fill="rgb(212,224,199)" stroke="rgb(212,224,199)" stroke-width="1" opacity="0.23529411764705882" d="M 92.5 268 L 91.5 270 L 92.5 268 Z " /><path fill="rgb(212,224,199)" stroke="rgb(212,224,199)" stroke-width="1" opacity="0.23529411764705882" d="M 210.5 270 L 211 272.5 L 210 272.5 L 210.5 270 Z " /><path fill="rgb(212,224,199)" stroke="rgb(212,224,199)" stroke-width="1" opacity="0.23529411764705882" d="M 90.5 271 L 91 272.5 L 89.5 275 L 89 273.5 L 90.5 271 Z " /><path fill="rgb(212,224,199)" stroke="rgb(212,224,199)" stroke-width="1" opacity="0.23529411764705882" d="M 88.5 276 L 89 277.5 L 87.5 280 L 87 278.5 L 88.5 276 Z " /><path fill="rgb(212,224,199)" stroke="rgb(212,224,199)" stroke-width="1" opacity="0.23529411764705882" d="M 86.5 281 L 87 283.5 L 85.5 287 L 85 284.5 L 86.5 281 Z " /><path fill="rgb(212,224,199)" stroke="rgb(212,224,199)" stroke-width="1" opacity="0.23529411764705882" d="M 84.5 289 L 85 294.5 L 84 294.5 L 84.5 289 Z " /><path fill="rgb(212,224,199)" stroke="rgb(212,224,199)" stroke-width="1" opacity="0.23529411764705882" d="M 289.5 289 L 290.5 291 L 289.5 289 Z " /><path fill="rgb(212,224,199)" stroke="rgb(212,224,199)" stroke-width="1" opacity="0.23529411764705882" d="M 83.5 296 L 84 305.5 L 83 305.5 L 83.5 296 Z " /><path fill="rgb(212,224,199)" stroke="rgb(212,224,199)" stroke-width="1" opacity="0.23529411764705882" d="M 84.5 307 L 85 313.5 L 84 313.5 L 84.5 307 Z " /><path fill="rgb(212,224,199)" stroke="rgb(212,224,199)" stroke-width="1" opacity="0.23529411764705882" d="M 85.5 316 L 87 320.5 L 86 320.5 L 85.5 316 Z " /><path fill="rgb(212,224,199)" stroke="rgb(212,224,199)" stroke-width="1" opacity="0.23529411764705882" d="M 87.5 323 L 91 330.5 L 90 330.5 L 87.5 323 Z " /><path fill="rgb(212,224,199)" stroke="rgb(212,224,199)" stroke-width="1" opacity="0.23529411764705882" d="M 91.5 332 L 94 335.5 L 92 334.5 L 91.5 332 Z " /><path fill="rgb(212,224,199)" stroke="rgb(212,224,199)" stroke-width="1" opacity="0.23529411764705882" d="M 95.5 339 L 97.5 342 L 95.5 339 Z " /><path fill="rgb(212,224,199)" stroke="rgb(212,224,199)" stroke-width="1" opacity="0.23529411764705882" d="M 98.5 343 L 108.5 354 L 98.5 343 Z " /><path fill="rgb(212,224,199)" stroke="rgb(212,224,199)" stroke-width="1" opacity="0.23529411764705882" d="M 111.5 355 L 113.5 358 L 111.5 355 Z " /><path fill="rgb(212,224,199)" stroke="rgb(212,224,199)" stroke-width="1" opacity="0.23529411764705882" d="M 117.5 359 L 118.5 361 L 117.5 359 Z " /><path fill="rgb(212,224,199)" stroke="rgb(212,224,199)" stroke-width="1" opacity="0.23529411764705882" d="M 407.5 362 Q 410 363 409 367.5 L 407.5 370 L 407 368.5 L 408 363.5 L 407.5 362 Z " /><path fill="rgb(212,224,199)" stroke="rgb(212,224,199)" stroke-width="1" opacity="0.23529411764705882" d="M 146.5 370 L 152 370.5 L 146.5 371 L 146.5 370 Z " /><path fill="rgb(212,224,199)" stroke="rgb(212,224,199)" stroke-width="1" opacity="0.23529411764705882" d="M 405.5 370 L 404.5 372 L 153 371.5 L 404.5 371 L 405.5 370 Z " /><path fill="rgb(21,77,49)" stroke="rgb(21,77,49)" stroke-width="1" opacity="0.9647058823529412" d="M 162.5 113 L 161.5 115 Q 158.9 114.2 160 117.5 L 157.5 119 L 157.5 118 Q 160.1 118.8 159 115.5 L 162.5 113 Z " /><path fill="rgb(21,77,49)" stroke="rgb(21,77,49)" stroke-width="1" opacity="0.9647058823529412" d="M 164.5 113 L 167 113.5 L 164.5 114 L 164.5 113 Z " /><path fill="rgb(21,77,49)" stroke="rgb(21,77,49)" stroke-width="1" opacity="0.9647058823529412" d="M 176.5 113 L 247 113.5 L 176.5 114 L 176.5 113 Z " /><path fill="rgb(21,77,49)" stroke="rgb(21,77,49)" stroke-width="1" opacity="0.9647058823529412" d="M 248.5 113 L 288 113.5 L 248.5 114 L 248.5 113 Z " /><path fill="rgb(21,77,49)" stroke="rgb(21,77,49)" stroke-width="1" opacity="0.9647058823529412" d="M 300.5 114 L 304 118.5 L 303 118.5 L 301.5 116 Q 298.7 116.7 300.5 114 Z " /><path fill="rgb(21,77,49)" stroke="rgb(21,77,49)" stroke-width="1" opacity="0.9647058823529412" d="M 385.5 116 L 387 116.5 L 384.5 118 L 385.5 116 Z " /><path fill="rgb(21,77,49)" stroke="rgb(21,77,49)" stroke-width="1" opacity="0.9647058823529412" d="M 391.5 116 L 394 117.5 Q 391.8 118.8 394.5 120 L 396 119.5 L 395.5 133 L 394 126.5 L 395 121.5 L 391.5 116 Z " /><path fill="rgb(21,77,49)" stroke="rgb(21,77,49)" stroke-width="1" opacity="0.9647058823529412" d="M 157.5 120 L 158 132.5 L 157 132.5 L 157.5 120 Z " /><path fill="rgb(21,77,49)" stroke="rgb(21,77,49)" stroke-width="1" opacity="0.9647058823529412" d="M 373 120 L 375 120.5 L 373 121.5 L 373 120 Z " /><path fill="rgb(21,77,49)" stroke="rgb(21,77,49)" stroke-width="1" opacity="0.9647058823529412" d="M 169.5 122 L 170 123.5 L 169 124.5 L 168.5 136 L 168 124.5 L 169.5 122 Z " /><path fill="rgb(21,77,49)" stroke="rgb(21,77,49)" stroke-width="1" opacity="0.9647058823529412" d="M 366.5 122 L 369 122.5 Q 366.9 125.8 366.5 122 Z " /><path fill="rgb(21,77,49)" stroke="rgb(21,77,49)" stroke-width="1" opacity="0.9647058823529412" d="M 360.5 124 L 363 124.5 L 360.5 125 L 360.5 124 Z " /><path fill="rgb(21,77,49)" stroke="rgb(21,77,49)" stroke-width="1" opacity="0.9647058823529412" d="M 357.5 125 L 358.5 127 L 357.5 125 Z " /><path fill="rgb(21,77,49)" stroke="rgb(21,77,49)" stroke-width="1" opacity="0.9647058823529412" d="M 353 126 L 356 126.5 L 353.5 128 L 353 126 Z " /><path fill="rgb(21,77,49)" stroke="rgb(21,77,49)" stroke-width="1" opacity="0.9647058823529412" d="M 350.5 127 L 351 129 L 348 130.5 L 348 132.5 L 349 135.5 L 348.5 137 L 351 137.5 Q 349 141 347 136.5 L 347 132.5 Q 346.5 127.5 350.5 127 Z " /><path fill="rgb(21,77,49)" stroke="rgb(21,77,49)" stroke-width="1" opacity="0.9647058823529412" d="M 127.5 136 L 127 137.5 L 123 142.5 L 123 240.5 L 121.5 242 L 122 240.5 L 122 141.5 L 124 141 L 124 139.5 L 127.5 136 Z " /><path fill="rgb(21,77,49)" stroke="rgb(21,77,49)" stroke-width="1" opacity="0.9647058823529412" d="M 364.5 136 L 365.5 138 L 364.5 136 Z " /><path fill="rgb(21,77,49)" stroke="rgb(21,77,49)" stroke-width="1" opacity="0.9647058823529412" d="M 355 137 L 358 138.5 L 355 139 L 355 137 Z " /><path fill="rgb(21,77,49)" stroke="rgb(21,77,49)" stroke-width="1" opacity="0.9647058823529412" d="M 366.5 139 L 368 139.5 L 363 143.5 Q 365.8 145.2 361.5 147 L 363 144.5 L 362 143.5 L 366.5 139 Z " /><path fill="rgb(21,77,49)" stroke="rgb(21,77,49)" stroke-width="1" opacity="0.9647058823529412" d="M 133.5 146 L 260.5 146 L 262 147.5 L 261.5 256 L 261 147 L 133.5 147 L 133.5 146 Z " /><path fill="rgb(21,77,49)" stroke="rgb(21,77,49)" stroke-width="1" opacity="0.9647058823529412" d="M 359.5 147 L 358.5 149 L 359.5 147 Z " /><path fill="rgb(21,77,49)" stroke="rgb(21,77,49)" stroke-width="1" opacity="0.9647058823529412" d="M 380.5 148 L 381 151.5 L 380 151.5 L 380.5 148 Z " /><path fill="rgb(21,77,49)" stroke="rgb(21,77,49)" stroke-width="1" opacity="0.9647058823529412" d="M 356.5 150 L 358 150.5 L 354.5 153 L 356.5 150 Z " /><path fill="rgb(21,77,49)" stroke="rgb(21,77,49)" stroke-width="1" opacity="0.9647058823529412" d="M 393.5 150 L 394 158.5 L 393 158.5 L 392 154.5 L 393 151.5 L 393.5 150 Z " /><path fill="rgb(21,77,49)" stroke="rgb(21,77,49)" stroke-width="1" opacity="0.9647058823529412" d="M 375.5 151 L 376 152.5 L 363.5 164 L 363.5 163 L 365 162.5 L 364.5 161 L 366 161.5 Q 365.3 159.3 367.5 160 L 368.5 157 Q 370.8 157.8 370 155.5 Q 372.5 157.3 375 152.5 L 375.5 151 Z " /><path fill="rgb(21,77,49)" stroke="rgb(21,77,49)" stroke-width="1" opacity="0.9647058823529412" d="M 352.5 154 L 351.5 156 L 352.5 154 Z " /><path fill="rgb(21,77,49)" stroke="rgb(21,77,49)" stroke-width="1" opacity="0.9647058823529412" d="M 380.5 158 L 384.5 163 L 382.5 163 L 380 160.5 L 380.5 158 Z " /><path fill="rgb(21,77,49)" stroke="rgb(21,77,49)" stroke-width="1" opacity="0.9647058823529412" d="M 165.5 159 L 228.5 159 L 230 160.5 L 228.5 160 L 165.5 160 L 165.5 159 Z " /><path fill="rgb(21,77,49)" stroke="rgb(21,77,49)" stroke-width="1" opacity="0.9647058823529412" d="M 349.5 159 L 345.5 164 L 338.5 170 L 344.5 163 L 347.5 161 L 349.5 159 Z " /><path fill="rgb(21,77,49)" stroke="rgb(21,77,49)" stroke-width="1" opacity="0.9647058823529412" d="M 391.5 160 L 393 160.5 L 389 163 Q 387.9 160.3 390.5 161 L 391.5 160 Z " /><path fill="rgb(21,77,49)" stroke="rgb(21,77,49)" stroke-width="1" opacity="0.9647058823529412" d="M 230.5 163 Q 232.8 162.3 232 164.5 L 230.5 163 Z " /><path fill="rgb(21,77,49)" stroke="rgb(21,77,49)" stroke-width="1" opacity="0.9647058823529412" d="M 161.5 164 L 162 166.5 L 161 166.5 L 161.5 164 Z " /><path fill="rgb(21,77,49)" stroke="rgb(21,77,49)" stroke-width="1" opacity="0.9647058823529412" d="M 360.5 167 L 356.5 172 L 356 170 L 360.5 167 Z " /><path fill="rgb(21,77,49)" stroke="rgb(21,77,49)" stroke-width="1" opacity="0.9647058823529412" d="M 233.5 169 L 234.5 171 L 233.5 169 Z " /><path fill="rgb(21,77,49)" stroke="rgb(21,77,49)" stroke-width="1" opacity="0.9647058823529412" d="M 354.5 172 L 355 174.5 L 354 174.5 L 354.5 172 Z " /><path fill="rgb(21,77,49)" stroke="rgb(21,77,49)" stroke-width="1" opacity="0.9647058823529412" d="M 240.5 175 L 241.5 177 L 240.5 175 Z " /><path fill="rgb(21,77,49)" stroke="rgb(21,77,49)" stroke-width="1" opacity="0.9647058823529412" d="M 333.5 175 L 331 178.5 L 330.5 180 L 330 178.5 L 333.5 175 Z " /><path fill="rgb(21,77,49)" stroke="rgb(21,77,49)" stroke-width="1" opacity="0.9647058823529412" d="M 352.5 175 L 353 176.5 L 342 186.5 Q 341.3 184.3 343.5 185 L 348 179 L 352 176.5 L 352.5 175 Z " /><path fill="rgb(21,77,49)" stroke="rgb(21,77,49)" stroke-width="1" opacity="0.9647058823529412" d="M 326.5 182 L 326 183.5 L 325.5 185 L 325 183.5 L 326.5 182 Z " /><path fill="rgb(21,77,49)" stroke="rgb(21,77,49)" stroke-width="1" opacity="0.9647058823529412" d="M 321.5 187 L 323 189.5 L 321 188.5 L 321.5 187 Z " /><path fill="rgb(21,77,49)" stroke="rgb(21,77,49)" stroke-width="1" opacity="0.9647058823529412" d="M 339.5 188 L 342 188.5 L 332 197.5 Q 332.8 199.8 330.5 199 L 334.5 194 Q 337.1 194.7 336 192 L 338 192 L 338 189.5 L 339.5 188 Z " /><path fill="rgb(21,77,49)" stroke="rgb(21,77,49)" stroke-width="1" opacity="0.9647058823529412" d="M 317.5 192 L 317 193.5 Q 317.8 195.8 315.5 195 L 314 198 Q 311 196.8 312 200.5 L 311 200.5 L 311 198.5 L 317.5 192 Z " /><path fill="rgb(21,77,49)" stroke="rgb(21,77,49)" stroke-width="1" opacity="0.9647058823529412" d="M 355.5 194 L 359 195.5 L 357.5 195 Q 354.5 195.5 355.5 194 Z " /><path fill="rgb(21,77,49)" stroke="rgb(21,77,49)" stroke-width="1" opacity="0.9647058823529412" d="M 391.5 194 L 393.5 194 L 398 198.5 L 398 359.5 Q 398.3 360.8 404.5 360 L 405.5 362 L 402.5 361 L 398.5 362 L 396 359.5 L 396 336.5 L 397 335.5 L 397 320.5 Q 394.3 318.7 396 312.5 L 397 309.5 L 396 308.5 L 396 272.5 L 397 271.5 L 397 248.5 L 396 247.5 L 396 220.5 L 397 215.5 L 396 211.5 L 397 208.5 L 396 200.5 L 397 198 L 393 196.5 L 393.5 195 Q 390.5 195.5 391.5 194 Z " /><path fill="rgb(21,77,49)" stroke="rgb(21,77,49)" stroke-width="1" opacity="0.9647058823529412" d="M 353.5 195 L 354.5 197 L 352 196.5 L 353.5 195 Z " /><path fill="rgb(21,77,49)" stroke="rgb(21,77,49)" stroke-width="1" opacity="0.9647058823529412" d="M 328.5 200 L 330 200.5 L 328 201 L 326.5 204 L 326 202.5 L 328.5 200 Z " /><path fill="rgb(21,77,49)" stroke="rgb(21,77,49)" stroke-width="1" opacity="0.9647058823529412" d="M 309.5 201 L 308.5 203 L 309.5 201 Z " /><path fill="rgb(21,77,49)" stroke="rgb(21,77,49)" stroke-width="1" opacity="0.9647058823529412" d="M 351.5 202 L 352 205.5 L 351 205.5 L 351.5 202 Z " /><path fill="rgb(21,77,49)" stroke="rgb(21,77,49)" stroke-width="1" opacity="0.9647058823529412" d="M 361.5 204 L 362 359.5 L 361 359.5 L 361.5 204 Z " /><path fill="rgb(21,77,49)" stroke="rgb(21,77,49)" stroke-width="1" opacity="0.9647058823529412" d="M 320 208 L 322 208.5 L 320 209.5 L 320 208 Z " /><path fill="rgb(21,77,49)" stroke="rgb(21,77,49)" stroke-width="1" opacity="0.9647058823529412" d="M 351.5 209 L 352 211.5 L 351 211.5 L 351.5 209 Z " /><path fill="rgb(21,77,49)" stroke="rgb(21,77,49)" stroke-width="1" opacity="0.9647058823529412" d="M 317.5 210 Q 320.3 211.3 318 212.5 L 307.5 224 L 315 215.5 L 317 212.5 L 317.5 210 Z " /><path fill="rgb(21,77,49)" stroke="rgb(21,77,49)" stroke-width="1" opacity="0.9647058823529412" d="M 217.5 220 L 218.5 222 L 217.5 220 Z " /><path fill="rgb(21,77,49)" stroke="rgb(21,77,49)" stroke-width="1" opacity="0.9647058823529412" d="M 171.5 222 L 170.5 224 L 171.5 222 Z " /><path fill="rgb(21,77,49)" stroke="rgb(21,77,49)" stroke-width="1" opacity="0.9647058823529412" d="M 186.5 224 L 187.5 226 L 184.5 227 L 186.5 224 Z " /><path fill="rgb(21,77,49)" stroke="rgb(21,77,49)" stroke-width="1" opacity="0.9647058823529412" d="M 203 224 L 207 225 L 206.5 227 L 203 226 L 203 224 Z " /><path fill="rgb(21,77,49)" stroke="rgb(21,77,49)" stroke-width="1" opacity="0.9647058823529412" d="M 182.5 226 L 183 228 L 181 227.5 L 182.5 226 Z " /><path fill="rgb(21,77,49)" stroke="rgb(21,77,49)" stroke-width="1" opacity="0.9647058823529412" d="M 208 226 L 211 227.5 Q 210.3 229.8 212.5 229 L 212.5 230 L 208 228 L 208 226 Z " /><path fill="rgb(21,77,49)" stroke="rgb(21,77,49)" stroke-width="1" opacity="0.9647058823529412" d="M 166.5 227 L 165.5 229 L 166.5 227 Z " /><path fill="rgb(21,77,49)" stroke="rgb(21,77,49)" stroke-width="1" opacity="0.9647058823529412" d="M 302.5 227 Q 304.8 226.3 304 228.5 L 302.5 227 Z " /><path fill="rgb(21,77,49)" stroke="rgb(21,77,49)" stroke-width="1" opacity="0.9647058823529412" d="M 176.5 230 L 177 232 L 175 232 L 175 234 Q 172.3 232.9 173 235.5 L 172 235.5 L 176.5 230 Z " /><path fill="rgb(21,77,49)" stroke="rgb(21,77,49)" stroke-width="1" opacity="0.9647058823529412" d="M 214.5 230 L 218 234.5 L 214 231.5 L 214.5 230 Z " /><path fill="rgb(21,77,49)" stroke="rgb(21,77,49)" stroke-width="1" opacity="0.9647058823529412" d="M 351.5 232 L 352 239.5 L 351 239.5 L 351.5 232 Z " /><path fill="rgb(21,77,49)" stroke="rgb(21,77,49)" stroke-width="1" opacity="0.9647058823529412" d="M 162.5 233 L 160.5 236 L 158 235.5 L 162.5 233 Z " /><path fill="rgb(21,77,49)" stroke="rgb(21,77,49)" stroke-width="1" opacity="0.9647058823529412" d="M 278.5 233 L 271.5 241 L 278.5 233 Z " /><path fill="rgb(21,77,49)" stroke="rgb(21,77,49)" stroke-width="1" opacity="0.9647058823529412" d="M 229.5 234 L 228.5 236 L 229.5 234 Z " /><path fill="rgb(21,77,49)" stroke="rgb(21,77,49)" stroke-width="1" opacity="0.9647058823529412" d="M 140.5 235 L 144 235.5 Q 142.8 238.3 141.5 236 L 140.5 235 Z " /><path fill="rgb(21,77,49)" stroke="rgb(21,77,49)" stroke-width="1" opacity="0.9647058823529412" d="M 294.5 235 L 295 238 Q 292.3 236.9 293 239.5 L 292 239.5 L 294.5 235 Z " /><path fill="rgb(21,77,49)" stroke="rgb(21,77,49)" stroke-width="1" opacity="0.9647058823529412" d="M 172.5 238 L 171.5 240 L 172.5 238 Z " /><path fill="rgb(21,77,49)" stroke="rgb(21,77,49)" stroke-width="1" opacity="0.9647058823529412" d="M 177.5 240 L 180 241.5 L 178.5 242 L 177.5 240 Z " /><path fill="rgb(21,77,49)" stroke="rgb(21,77,49)" stroke-width="1" opacity="0.9647058823529412" d="M 221.5 240 L 222.5 242 L 221.5 240 Z " /><path fill="rgb(21,77,49)" stroke="rgb(21,77,49)" stroke-width="1" opacity="0.9647058823529412" d="M 290.5 241 L 289.5 243 L 290.5 241 Z " /><path fill="rgb(21,77,49)" stroke="rgb(21,77,49)" stroke-width="1" opacity="0.9647058823529412" d="M 119.5 242 L 120 243.5 L 118 244.5 L 119.5 242 Z " /><path fill="rgb(21,77,49)" stroke="rgb(21,77,49)" stroke-width="1" opacity="0.9647058823529412" d="M 181.5 242 L 184 243.5 L 182.5 244 L 181.5 242 Z " /><path fill="rgb(21,77,49)" stroke="rgb(21,77,49)" stroke-width="1" opacity="0.9647058823529412" d="M 302.5 242 L 303.5 244 Q 300.7 244.7 302.5 242 Z " /><path fill="rgb(21,77,49)" stroke="rgb(21,77,49)" stroke-width="1" opacity="0.9647058823529412" d="M 337.5 242 L 340 243 L 339.5 245 L 336 243.5 L 337.5 242 Z " /><path fill="rgb(21,77,49)" stroke="rgb(21,77,49)" stroke-width="1" opacity="0.9647058823529412" d="M 151.5 243 L 155 244.5 L 146.5 245 L 146.5 244 L 151.5 243 Z " /><path fill="rgb(21,77,49)" stroke="rgb(21,77,49)" stroke-width="1" opacity="0.9647058823529412" d="M 116.5 244 L 115.5 246 L 114 245.5 L 116.5 244 Z " /><path fill="rgb(21,77,49)" stroke="rgb(21,77,49)" stroke-width="1" opacity="0.9647058823529412" d="M 233.5 244 L 234 246.5 L 233 246.5 L 233.5 244 Z " /><path fill="rgb(21,77,49)" stroke="rgb(21,77,49)" stroke-width="1" opacity="0.9647058823529412" d="M 136.5 245 L 140 246.5 L 133.5 248 L 134.5 246 L 136.5 245 Z " /><path fill="rgb(21,77,49)" stroke="rgb(21,77,49)" stroke-width="1" opacity="0.9647058823529412" d="M 156.5 245 L 159 245.5 L 156.5 246 L 156.5 245 Z " /><path fill="rgb(21,77,49)" stroke="rgb(21,77,49)" stroke-width="1" opacity="0.9647058823529412" d="M 162.5 245 L 172 247 L 173 249.5 L 171.5 249 L 161 246.5 L 162.5 245 Z " /><path fill="rgb(21,77,49)" stroke="rgb(21,77,49)" stroke-width="1" opacity="0.9647058823529412" d="M 185.5 245 Q 188.1 244.3 187 247 L 189.5 247 L 190.5 249 Q 185.9 248.3 185.5 245 Z " /><path fill="rgb(21,77,49)" stroke="rgb(21,77,49)" stroke-width="1" opacity="0.9647058823529412" d="M 341.5 245 L 342 247.5 L 341.5 252 L 340 246.5 L 341.5 245 Z " /><path fill="rgb(21,77,49)" stroke="rgb(21,77,49)" stroke-width="1" opacity="0.9647058823529412" d="M 223.5 246 L 225 248.5 L 223 247.5 L 223.5 246 Z " /><path fill="rgb(21,77,49)" stroke="rgb(21,77,49)" stroke-width="1" opacity="0.9647058823529412" d="M 111.5 247 L 113 247.5 L 111 248.5 L 111.5 250 Q 108.5 248.5 111.5 247 Z " /><path fill="rgb(21,77,49)" stroke="rgb(21,77,49)" stroke-width="1" opacity="0.9647058823529412" d="M 130.5 247 Q 133.1 246.3 132 249 L 128.5 250 L 128 248 L 130.5 247 Z " /><path fill="rgb(21,77,49)" stroke="rgb(21,77,49)" stroke-width="1" opacity="0.9647058823529412" d="M 283.5 248 L 284 249.5 L 274.5 259 L 273 259 L 272.5 261 L 271.5 259 L 275 257.5 L 274.5 256 Q 276.3 258.8 278 254.5 L 279.5 252 Q 282.1 252.7 281 250 L 283 250 L 283.5 248 Z " /><path fill="rgb(21,77,49)" stroke="rgb(21,77,49)" stroke-width="1" opacity="0.9647058823529412" d="M 351.5 248 L 352 256.5 L 351 256.5 L 351.5 248 Z " /><path fill="rgb(21,77,49)" stroke="rgb(21,77,49)" stroke-width="1" opacity="0.9647058823529412" d="M 125.5 249 L 126.5 251 Q 116.4 254.9 110 262.5 L 102.5 273 L 102 271.5 L 105 266 L 107 266 L 107 264 Q 109.7 265.1 109 262.5 L 109.5 260 L 110.5 261 L 115.5 256 L 125.5 249 Z " /><path fill="rgb(21,77,49)" stroke="rgb(21,77,49)" stroke-width="1" opacity="0.9647058823529412" d="M 174.5 249 L 177 250 L 176.5 252 L 174 251 L 174.5 249 Z " /><path fill="rgb(21,77,49)" stroke="rgb(21,77,49)" stroke-width="1" opacity="0.9647058823529412" d="M 234.5 249 L 235 251.5 L 234 251.5 L 234.5 249 Z " /><path fill="rgb(21,77,49)" stroke="rgb(21,77,49)" stroke-width="1" opacity="0.9647058823529412" d="M 108.5 250 L 110 250.5 L 106.5 253 L 108.5 250 Z " /><path fill="rgb(21,77,49)" stroke="rgb(21,77,49)" stroke-width="1" opacity="0.9647058823529412" d="M 178 251 Q 180.7 249.9 180 252.5 L 183 253.5 Q 182.3 255.8 184.5 255 L 189 258.5 L 190.5 261 L 193 262.5 L 197 269 Q 199.7 267.9 199 270.5 L 201 273.5 L 199.5 274 L 198.5 271 L 196 269.5 Q 197.1 266.2 194.5 267 L 188 258 L 185.5 258 L 178 253 L 178 251 Z " /><path fill="rgb(21,77,49)" stroke="rgb(21,77,49)" stroke-width="1" opacity="0.9647058823529412" d="M 310.5 252 L 330.5 252 L 332 253.5 L 330.5 253 L 310.5 253 L 310 253.5 L 310 358.5 L 309 358.5 L 309 253.5 L 310.5 252 Z " /><path fill="rgb(21,77,49)" stroke="rgb(21,77,49)" stroke-width="1" opacity="0.9647058823529412" d="M 104.5 253 L 104 254.5 L 97.5 262 L 103 255.5 L 104.5 253 Z " /><path fill="rgb(21,77,49)" stroke="rgb(21,77,49)" stroke-width="1" opacity="0.9647058823529412" d="M 195.5 253 L 197.5 256 L 195.5 253 Z " /><path fill="rgb(21,77,49)" stroke="rgb(21,77,49)" stroke-width="1" opacity="0.9647058823529412" d="M 234.5 253 L 235 255.5 L 234 255.5 L 234.5 253 Z " /><path fill="rgb(21,77,49)" stroke="rgb(21,77,49)" stroke-width="1" opacity="0.9647058823529412" d="M 331.5 255 L 332 359.5 L 331 359.5 L 331.5 255 Z " /><path fill="rgb(21,77,49)" stroke="rgb(21,77,49)" stroke-width="1" opacity="0.9647058823529412" d="M 199.5 257 L 200.5 259 L 199.5 257 Z " /><path fill="rgb(21,77,49)" stroke="rgb(21,77,49)" stroke-width="1" opacity="0.9647058823529412" d="M 223.5 258 L 224 259.5 L 222 260.5 L 223.5 258 Z " /><path fill="rgb(21,77,49)" stroke="rgb(21,77,49)" stroke-width="1" opacity="0.9647058823529412" d="M 148.5 260 L 151 260.5 L 147 263.5 L 146 265.5 L 147 268.5 L 146.5 271 L 145.5 269 L 144 269.5 L 146 261 L 148.5 260 Z " /><path fill="rgb(21,77,49)" stroke="rgb(21,77,49)" stroke-width="1" opacity="0.9647058823529412" d="M 152.5 260 L 155 261 L 156 264.5 L 154 263.5 L 152.5 260 Z " /><path fill="rgb(21,77,49)" stroke="rgb(21,77,49)" stroke-width="1" opacity="0.9647058823529412" d="M 201.5 260 L 204 261.5 L 202 262.5 L 202.5 261 L 201.5 260 Z " /><path fill="rgb(21,77,49)" stroke="rgb(21,77,49)" stroke-width="1" opacity="0.9647058823529412" d="M 261.5 260 L 262 359.5 L 260.5 361 L 183.5 361 L 182.5 362 L 181 359.5 L 184 357.5 Q 184.8 359.8 182.5 359 L 182.5 360 L 261 360 L 261.5 260 Z " /><path fill="rgb(21,77,49)" stroke="rgb(21,77,49)" stroke-width="1" opacity="0.9647058823529412" d="M 96.5 263 L 98 263.5 L 96 264 Q 97.5 267.8 94.5 267 L 93.5 270 Q 90.9 269.2 92 272.5 L 90 273.5 L 92.5 269 L 94 268.5 Q 91.5 267 95 265.5 L 96.5 263 Z " /><path fill="rgb(21,77,49)" stroke="rgb(21,77,49)" stroke-width="1" opacity="0.9647058823529412" d="M 222.5 263 L 221.5 267 Q 218 265 222.5 263 Z " /><path fill="rgb(21,77,49)" stroke="rgb(21,77,49)" stroke-width="1" opacity="0.9647058823529412" d="M 205.5 264 L 208 267.5 Q 206.5 270.5 205 267.5 L 205 265.5 L 205.5 264 Z " /><path fill="rgb(21,77,49)" stroke="rgb(21,77,49)" stroke-width="1" opacity="0.9647058823529412" d="M 270.5 264 L 271 287.5 L 272 288.5 L 270 289 L 270.5 264 Z " /><path fill="rgb(21,77,49)" stroke="rgb(21,77,49)" stroke-width="1" opacity="0.9647058823529412" d="M 156.5 266 L 158.5 270 Q 163.3 268.7 162 272 L 156.5 270 L 155 270.5 L 156.5 266 Z " /><path fill="rgb(21,77,49)" stroke="rgb(21,77,49)" stroke-width="1" opacity="0.9647058823529412" d="M 141.5 270 L 143 270.5 L 131 278.5 L 131 282.5 L 130 284.5 L 131 286.5 L 130 288.5 L 130.5 290 L 129 290.5 Q 131.3 291.8 128.5 293 L 128 283.5 L 130 283.5 L 129 281.5 L 132 275 L 138.5 271 Q 140 273.5 141.5 270 Z " /><path fill="rgb(21,77,49)" stroke="rgb(21,77,49)" stroke-width="1" opacity="0.9647058823529412" d="M 163.5 271 L 169 274 L 169 276 Q 171.7 274.9 171 277.5 L 171.5 279 L 169 278.5 L 169.5 277 Q 167.3 277.8 168 275.5 L 163 272.5 L 163.5 271 Z " /><path fill="rgb(21,77,49)" stroke="rgb(21,77,49)" stroke-width="1" opacity="0.9647058823529412" d="M 208.5 271 Q 210.8 270.3 210 272.5 L 208.5 271 Z " /><path fill="rgb(21,77,49)" stroke="rgb(21,77,49)" stroke-width="1" opacity="0.9647058823529412" d="M 228.5 273 L 227.5 275 L 228.5 273 Z " /><path fill="rgb(21,77,49)" stroke="rgb(21,77,49)" stroke-width="1" opacity="0.9647058823529412" d="M 101.5 274 L 101 275.5 L 100.5 277 L 100 275.5 L 101.5 274 Z " /><path fill="rgb(21,77,49)" stroke="rgb(21,77,49)" stroke-width="1" opacity="0.9647058823529412" d="M 212.5 274 L 215 274.5 L 212.5 275 L 212.5 274 Z " /><path fill="rgb(21,77,49)" stroke="rgb(21,77,49)" stroke-width="1" opacity="0.9647058823529412" d="M 89.5 275 L 90 277.5 L 88 278.5 L 89.5 275 Z " /><path fill="rgb(21,77,49)" stroke="rgb(21,77,49)" stroke-width="1" opacity="0.9647058823529412" d="M 200 275 L 202 275.5 L 201.5 278 L 200 275 Z " /><path fill="rgb(21,77,49)" stroke="rgb(21,77,49)" stroke-width="1" opacity="0.9647058823529412" d="M 144.5 279 L 147 279.5 L 142 282 Q 143.1 284.7 140.5 284 L 140.5 286 Q 138.3 286.8 139 284.5 L 142 280 L 144.5 279 Z " /><path fill="rgb(21,77,49)" stroke="rgb(21,77,49)" stroke-width="1" opacity="0.9647058823529412" d="M 153.5 279 L 157 280.5 L 155.5 280 Q 152.5 280.5 153.5 279 Z " /><path fill="rgb(21,77,49)" stroke="rgb(21,77,49)" stroke-width="1" opacity="0.9647058823529412" d="M 87.5 280 Q 90.2 281.3 88 282.5 L 86.5 285 L 87 283.5 L 87.5 280 Z " /><path fill="rgb(21,77,49)" stroke="rgb(21,77,49)" stroke-width="1" opacity="0.9647058823529412" d="M 98.5 280 L 99 282 L 97 281.5 L 98.5 280 Z " /><path fill="rgb(21,77,49)" stroke="rgb(21,77,49)" stroke-width="1" opacity="0.9647058823529412" d="M 171 280 Q 174 278.8 173 282.5 L 170.5 286 L 168.5 287 L 168 285 Q 170.7 286.1 170 283.5 L 171 280 Z " /><path fill="rgb(21,77,49)" stroke="rgb(21,77,49)" stroke-width="1" opacity="0.9647058823529412" d="M 202.5 280 L 205 281.5 L 203.5 282 L 202.5 280 Z " /><path fill="rgb(21,77,49)" stroke="rgb(21,77,49)" stroke-width="1" opacity="0.9647058823529412" d="M 158.5 281 Q 160.8 280.3 160 282.5 L 165.5 286 L 167 285.5 Q 167.9 288.5 163.5 287 L 158.5 281 Z " /><path fill="rgb(21,77,49)" stroke="rgb(21,77,49)" stroke-width="1" opacity="0.9647058823529412" d="M 96 283 Q 98.7 281.9 98 284.5 L 95.5 290 L 95 286.5 L 96 283 Z " /><path fill="rgb(21,77,49)" stroke="rgb(21,77,49)" stroke-width="1" opacity="0.9647058823529412" d="M 203.5 283 L 207 288.5 L 206 291.5 L 208 298.5 L 208 304.5 L 205.5 313 L 205 311.5 L 206 310.5 L 206 292.5 L 203.5 283 Z " /><path fill="rgb(21,77,49)" stroke="rgb(21,77,49)" stroke-width="1" opacity="0.9647058823529412" d="M 215.5 285 L 216 288.5 L 215 288.5 L 215.5 285 Z " /><path fill="rgb(21,77,49)" stroke="rgb(21,77,49)" stroke-width="1" opacity="0.9647058823529412" d="M 85.5 287 L 87 290.5 L 85.5 293 L 85.5 287 Z " /><path fill="rgb(21,77,49)" stroke="rgb(21,77,49)" stroke-width="1" opacity="0.9647058823529412" d="M 139.5 288 L 144 293.5 L 142 294.5 L 139 290.5 L 139.5 288 Z " /><path fill="rgb(21,77,49)" stroke="rgb(21,77,49)" stroke-width="1" opacity="0.9647058823529412" d="M 95.5 291 L 96 293.5 L 94 296.5 L 95 297.5 L 96 311.5 L 94 310.5 L 93 301.5 L 93 299.5 L 94 295.5 L 93.5 294 L 95 293.5 Q 92.8 292.3 95.5 291 Z " /><path fill="rgb(21,77,49)" stroke="rgb(21,77,49)" stroke-width="1" opacity="0.9647058823529412" d="M 130.5 293 Q 131.4 298.6 135.5 301 Q 137.8 300.3 137 302.5 L 135.5 302 L 130 297.5 L 129 294.5 L 130.5 293 Z " /><path fill="rgb(21,77,49)" stroke="rgb(21,77,49)" stroke-width="1" opacity="0.9647058823529412" d="M 145.5 294 L 148 294.5 L 145.5 295 L 145.5 294 Z " /><path fill="rgb(21,77,49)" stroke="rgb(21,77,49)" stroke-width="1" opacity="0.9647058823529412" d="M 149.5 295 L 157 296.5 L 154.5 298 L 149.5 296 L 149.5 295 Z " /><path fill="rgb(21,77,49)" stroke="rgb(21,77,49)" stroke-width="1" opacity="0.9647058823529412" d="M 84.5 296 L 85 298.5 L 84 298.5 L 84.5 296 Z " /><path fill="rgb(21,77,49)" stroke="rgb(21,77,49)" stroke-width="1" opacity="0.9647058823529412" d="M 158.5 297 Q 168.5 299 173 306.5 L 172.5 309 L 170 308.5 L 171 306.5 L 169 306.5 L 170 305.5 L 167 302.5 Q 167.8 300.3 165.5 301 L 159.5 299 L 158.5 297 Z " /><path fill="rgb(21,77,49)" stroke="rgb(21,77,49)" stroke-width="1" opacity="0.9647058823529412" d="M 280.5 299 L 281 359.5 L 280 359.5 L 280.5 299 Z " /><path fill="rgb(21,77,49)" stroke="rgb(21,77,49)" stroke-width="1" opacity="0.9647058823529412" d="M 138.5 302 L 142.5 304 L 147 305.5 L 144.5 306 L 138 304 L 138.5 302 Z " /><path fill="rgb(21,77,49)" stroke="rgb(21,77,49)" stroke-width="1" opacity="0.9647058823529412" d="M 84.5 303 L 85 305.5 L 84 305.5 L 84.5 303 Z " /><path fill="rgb(21,77,49)" stroke="rgb(21,77,49)" stroke-width="1" opacity="0.9647058823529412" d="M 150.5 305 L 151 307 L 149 306.5 L 150.5 305 Z " /><path fill="rgb(21,77,49)" stroke="rgb(21,77,49)" stroke-width="1" opacity="0.9647058823529412" d="M 152.5 306 Q 157.3 304.7 156 308 Q 152.2 308.8 152.5 306 Z " /><path fill="rgb(21,77,49)" stroke="rgb(21,77,49)" stroke-width="1" opacity="0.9647058823529412" d="M 159.5 308 L 163 312.5 L 163 316.5 L 159 323 Q 156.1 325.9 148.5 325 L 146 323.5 L 155.5 323 L 161 318.5 L 161 311.5 Q 158 310.5 159.5 308 Z " /><path fill="rgb(21,77,49)" stroke="rgb(21,77,49)" stroke-width="1" opacity="0.9647058823529412" d="M 85.5 309 L 87 312.5 L 85.5 315 L 85.5 309 Z " /><path fill="rgb(21,77,49)" stroke="rgb(21,77,49)" stroke-width="1" opacity="0.9647058823529412" d="M 95.5 313 L 97 316.5 L 95 315.5 L 95.5 313 Z " /><path fill="rgb(21,77,49)" stroke="rgb(21,77,49)" stroke-width="1" opacity="0.9647058823529412" d="M 204.5 314 L 206 316.5 L 203.5 320 L 204 318.5 L 204.5 314 Z " /><path fill="rgb(21,77,49)" stroke="rgb(21,77,49)" stroke-width="1" opacity="0.9647058823529412" d="M 215.5 314 L 216 316.5 L 215 316.5 L 215.5 314 Z " /><path fill="rgb(21,77,49)" stroke="rgb(21,77,49)" stroke-width="1" opacity="0.9647058823529412" d="M 131.5 316 L 131.5 319 Q 128.5 317.5 131.5 316 Z " /><path fill="rgb(21,77,49)" stroke="rgb(21,77,49)" stroke-width="1" opacity="0.9647058823529412" d="M 135.5 316 Q 139 321 145 322 L 144.5 324 L 141 323 L 139.5 320 L 135.5 316 Z " /><path fill="rgb(21,77,49)" stroke="rgb(21,77,49)" stroke-width="1" opacity="0.9647058823529412" d="M 96.5 318 Q 98.8 317.3 98 319.5 L 100 323.5 L 99 324.5 L 102 327.5 Q 106.5 338.5 115.5 345 L 118 346.5 L 118.5 348 Q 119.8 345.7 121 348.5 L 121.5 350 Q 123 347.5 124.5 351 L 134 354.5 L 131.5 355 Q 115.2 349.8 106 337.5 L 103 333.5 L 103 331 L 101 330.5 Q 103.5 329 100 327.5 L 96.5 318 Z " /><path fill="rgb(21,77,49)" stroke="rgb(21,77,49)" stroke-width="1" opacity="0.9647058823529412" d="M 87.5 319 L 89.5 322 L 87 321.5 L 87.5 319 Z " /><path fill="rgb(21,77,49)" stroke="rgb(21,77,49)" stroke-width="1" opacity="0.9647058823529412" d="M 128 319 L 130 319.5 L 129 321.5 L 132 328 L 137 330.5 L 136.5 332 L 128 324.5 L 128 319 Z " /><path fill="rgb(21,77,49)" stroke="rgb(21,77,49)" stroke-width="1" opacity="0.9647058823529412" d="M 173.5 319 L 174 320.5 Q 171.8 327.3 166.5 331 L 164.5 332 L 164 330.5 L 169 326.5 L 172 322.5 L 171.5 321 Q 174 321.7 173.5 319 Z " /><path fill="rgb(21,77,49)" stroke="rgb(21,77,49)" stroke-width="1" opacity="0.9647058823529412" d="M 202 321 Q 204.7 319.9 204 322.5 L 196 335.5 L 196 338 Q 193 339.3 194 335.5 Q 200.4 330 202 321 Z " /><path fill="rgb(21,77,49)" stroke="rgb(21,77,49)" stroke-width="1" opacity="0.9647058823529412" d="M 212.5 321 L 214 323.5 L 213 323.5 L 212.5 321 Z " /><path fill="rgb(21,77,49)" stroke="rgb(21,77,49)" stroke-width="1" opacity="0.9647058823529412" d="M 88.5 323 L 91 327 Q 88 328.3 89 324.5 L 88.5 323 Z " /><path fill="rgb(21,77,49)" stroke="rgb(21,77,49)" stroke-width="1" opacity="0.9647058823529412" d="M 211.5 327 L 212 328.5 L 210 329.5 L 211.5 327 Z " /><path fill="rgb(21,77,49)" stroke="rgb(21,77,49)" stroke-width="1" opacity="0.9647058823529412" d="M 90.5 328 Q 92.8 327.3 92 329.5 L 90.5 328 Z " /><path fill="rgb(21,77,49)" stroke="rgb(21,77,49)" stroke-width="1" opacity="0.9647058823529412" d="M 138.5 331 L 142 332.5 L 138 333 L 138.5 331 Z " /><path fill="rgb(21,77,49)" stroke="rgb(21,77,49)" stroke-width="1" opacity="0.9647058823529412" d="M 161.5 331 Q 164.1 330.3 163 333 L 160 332.5 L 161.5 331 Z " /><path fill="rgb(21,77,49)" stroke="rgb(21,77,49)" stroke-width="1" opacity="0.9647058823529412" d="M 92.5 332 L 95 333.5 Q 92.5 335 96 336.5 L 97 338.5 L 95 337.5 L 92.5 332 Z " /><path fill="rgb(21,77,49)" stroke="rgb(21,77,49)" stroke-width="1" opacity="0.9647058823529412" d="M 157.5 332 L 158.5 334 L 157.5 332 Z " /><path fill="rgb(21,77,49)" stroke="rgb(21,77,49)" stroke-width="1" opacity="0.9647058823529412" d="M 208.5 333 L 208 334.5 L 206.5 337 L 207 335.5 L 208.5 333 Z " /><path fill="rgb(21,77,49)" stroke="rgb(21,77,49)" stroke-width="1" opacity="0.9647058823529412" d="M 144.5 334 Q 149.1 332.6 147 338.5 L 147.5 341 L 150.5 342 L 155.5 338 L 156 339.5 L 153.5 343 Q 147.3 344.3 146 340.5 L 144.5 334 Z " /><path fill="rgb(21,77,49)" stroke="rgb(21,77,49)" stroke-width="1" opacity="0.9647058823529412" d="M 239.5 334 L 235.5 339 L 239.5 334 Z " /><path fill="rgb(21,77,49)" stroke="rgb(21,77,49)" stroke-width="1" opacity="0.9647058823529412" d="M 192.5 338 L 193 339.5 L 191 343 L 183.5 348 L 183 346.5 L 192.5 338 Z " /><path fill="rgb(21,77,49)" stroke="rgb(21,77,49)" stroke-width="1" opacity="0.9647058823529412" d="M 209.5 339 L 223 339.5 L 209.5 340 L 209.5 339 Z " /><path fill="rgb(21,77,49)" stroke="rgb(21,77,49)" stroke-width="1" opacity="0.9647058823529412" d="M 97.5 340 L 100 341.5 L 98.5 342 L 97.5 340 Z " /><path fill="rgb(21,77,49)" stroke="rgb(21,77,49)" stroke-width="1" opacity="0.9647058823529412" d="M 233.5 342 L 232.5 344 L 233.5 342 Z " /><path fill="rgb(21,77,49)" stroke="rgb(21,77,49)" stroke-width="1" opacity="0.9647058823529412" d="M 100.5 344 L 106 348 L 108.5 352 L 112 354.5 L 110 355 Q 111.1 352.3 108.5 353 L 100.5 344 Z " /><path fill="rgb(21,77,49)" stroke="rgb(21,77,49)" stroke-width="1" opacity="0.9647058823529412" d="M 181.5 347 L 180 349.5 L 181 351.5 L 178 350.5 Q 178.8 352.8 176.5 352 L 174 352.5 Q 174.8 354.8 172.5 354 L 174.5 351 L 176.5 351 L 181.5 347 Z " /><path fill="rgb(21,77,49)" stroke="rgb(21,77,49)" stroke-width="1" opacity="0.9647058823529412" d="M 170.5 353 L 169.5 355 L 165.5 357 L 153.5 358 L 153.5 357 L 164.5 355 Q 166 357.5 167.5 354 L 170.5 353 Z " /><path fill="rgb(21,77,49)" stroke="rgb(21,77,49)" stroke-width="1" opacity="0.9647058823529412" d="M 113.5 354 L 115 356.5 L 114 356.5 L 113.5 354 Z " /><path fill="rgb(21,77,49)" stroke="rgb(21,77,49)" stroke-width="1" opacity="0.9647058823529412" d="M 189.5 354 L 188.5 356 L 189.5 354 Z " /><path fill="rgb(21,77,49)" stroke="rgb(21,77,49)" stroke-width="1" opacity="0.9647058823529412" d="M 136.5 355 L 147 357.5 L 140.5 358 L 136.5 356 L 136.5 355 Z " /><path fill="rgb(21,77,49)" stroke="rgb(21,77,49)" stroke-width="1" opacity="0.9647058823529412" d="M 351.5 358 L 352 359.5 Q 350.3 362.8 343.5 361 L 343.5 360 Q 351.6 361.8 351.5 358 Z " /><path fill="rgb(21,77,49)" stroke="rgb(21,77,49)" stroke-width="1" opacity="0.9647058823529412" d="M 291.5 360 L 299 360.5 L 292.5 362 L 291.5 360 Z " /><path fill="rgb(21,77,49)" stroke="rgb(21,77,49)" stroke-width="1" opacity="0.9647058823529412" d="M 368.5 360 L 384 360.5 L 368.5 361 L 368.5 360 Z " /><path fill="rgb(21,77,49)" stroke="rgb(21,77,49)" stroke-width="1" opacity="0.9647058823529412" d="M 123.5 361 L 124.5 363 L 123.5 361 Z " /><path fill="rgb(21,77,49)" stroke="rgb(21,77,49)" stroke-width="1" opacity="0.9647058823529412" d="M 406.5 363 L 407.5 365 L 406.5 363 Z " /><path fill="rgb(21,77,49)" stroke="rgb(21,77,49)" stroke-width="1" opacity="0.9647058823529412" d="M 129.5 364 L 133 365.5 L 130.5 366 L 129.5 364 Z " /><path fill="rgb(21,77,49)" stroke="rgb(21,77,49)" stroke-width="1" opacity="0.9647058823529412" d="M 136.5 367 L 140 367.5 L 136.5 368 L 136.5 367 Z " /><path fill="rgb(21,77,49)" stroke="rgb(21,77,49)" stroke-width="1" opacity="0.9647058823529412" d="M 406.5 367 L 406.5 370 L 404 368.5 L 406.5 367 Z " /><path fill="rgb(21,77,49)" stroke="rgb(21,77,49)" stroke-width="1" opacity="0.9647058823529412" d="M 146.5 368 L 147 370 L 144 369.5 L 146.5 368 Z " /><path fill="rgb(21,77,49)" stroke="rgb(21,77,49)" stroke-width="1" opacity="0.9647058823529412" d="M 148.5 369 L 151 369.5 L 148.5 370 L 148.5 369 Z " /><path fill="rgb(21,77,49)" stroke="rgb(21,77,49)" stroke-width="1" opacity="0.9647058823529412" d="M 152.5 369 L 153.5 371 L 152.5 369 Z " /></svg>